Coordinates
version=1
nRows=10
nColumns=40
inDegrees=yes

Units are S.I. units (second, meters, Newtons, ...)
If the header above contains a line with 'inDegrees', this indicates whether rotational values are in degrees (yes) or radians (no).

endheader
time	pelvis_tilt	pelvis_list	pelvis_rotation	pelvis_tx	pelvis_ty	pelvis_tz	hip_flexion_r	hip_adduction_r	hip_rotation_r	knee_angle_r	knee_angle_r_beta	ankle_angle_r	subtalar_angle_r	mtp_angle_r	hip_flexion_l	hip_adduction_l	hip_rotation_l	knee_angle_l	knee_angle_l_beta	ankle_angle_l	subtalar_angle_l	mtp_angle_l	lumbar_extension	lumbar_bending	lumbar_rotation	arm_flex_r	arm_add_r	arm_rot_r	elbow_flex_r	pro_sup_r	wrist_flex_r	wrist_dev_r	arm_flex_l	arm_add_l	arm_rot_l	elbow_flex_l	pro_sup_l	wrist_flex_l	wrist_dev_l
      5.05000000	    -26.03653541	      3.09237870	      6.67073831	     -0.34068914	      0.82639170	     -0.99630481	     35.39076163	    -14.63408036	     -0.09364829	     89.77861374	      1.56693241	     -8.10131467	      0.00000000	      0.00000000	     69.59701917	      4.48285738	     -8.88904049	     75.02796460	      1.30948501	     21.30751809	      0.00000000	      0.00000000	      1.90860332	    -12.77046420	    -11.82330289	     89.94408567	     -4.01367593	     22.69513401	     53.51140389	     45.00000219	      0.00000000	      0.00000000	     89.96912701	    -14.45566441	     32.32326911	     59.56032717	     73.73834375	      0.00000000	      0.00000000
      5.05500000	    -25.92842184	      3.19061818	      6.63855635	     -0.34047610	      0.82621885	     -0.99630078	     35.26441711	    -14.67577886	     -0.02541773	     89.78694898	      1.56707789	     -8.11156404	      0.00000000	      0.00000000	     69.49764890	      4.47087839	     -9.04129127	     75.12244743	      1.31113405	     21.27653294	      0.00000000	      0.00000000	      1.78776487	    -12.80392181	    -11.86653531	     89.94455891	     -3.91996227	     23.05974924	     53.49697905	     45.00000176	      0.00000000	      0.00000000	     89.96905771	    -14.62123073	     31.36538333	     59.32921062	     84.56525874	      0.00000000	      0.00000000
      5.06000000	    -25.93943228	      3.14964370	      6.69996050	     -0.34049633	      0.82581429	     -0.99638795	     35.26111234	    -14.68274329	     -0.15238541	     89.82154115	      1.56768163	     -8.11991415	      0.00000000	      0.00000000	     69.56943959	      4.50307465	     -9.00742833	     75.23223650	      1.31305023	     21.24171724	      0.00000000	      0.00000000	      1.78269402	    -12.75828026	    -11.92347389	     89.94474338	     -3.91664644	     23.07753245	     53.46875376	     45.00000149	      0.00000000	      0.00000000	     89.96901969	    -14.65615763	     31.43571282	     59.43364054	     84.39272764	      0.00000000	      0.00000000
      5.06500000	    -25.92961482	      3.17058203	      6.70183540	     -0.34046833	      0.82543627	     -0.99634036	     35.23614311	    -14.65813102	     -0.14151732	     89.84347718	      1.56806449	     -8.10914739	      0.00000000	      0.00000000	     69.59098725	      4.55633075	     -8.93531840	     75.26695556	      1.31365619	     21.34934438	      0.00000000	      0.00000000	      1.74977486	    -12.77576628	    -11.96154842	     89.94479871	     -3.88067916	     23.10399573	     53.54717086	     45.00000126	      0.00000000	      0.00000000	     89.96900296	    -14.65958798	     31.39980919	     59.37220034	     84.07681777	      0.00000000	      0.00000000
      5.07000000	    -25.98240424	      3.24837790	      6.72978830	     -0.34041929	      0.82496735	     -0.99640192	     35.29968594	    -14.75074290	     -0.12082249	     89.91187054	      1.56925818	     -8.11572061	      0.00000000	      0.00000000	     69.68011374	      4.62867013	     -8.99952671	     75.36307310	      1.31533376	     21.37320038	      0.00000000	      0.00000000	      1.79293476	    -12.84455115	    -11.96794238	     89.94470665	     -3.84405014	     23.03814874	     53.52323900	     45.00000108	      0.00000000	      0.00000000	     89.96903637	    -14.71859508	     31.38924878	     59.39620452	     84.53839811	      0.00000000	      0.00000000
      5.07500000	    -26.07462201	      3.13015795	      6.75119300	     -0.34046306	      0.82431995	     -0.99637377	     35.39054637	    -14.64167133	     -0.21570102	     89.96769184	      1.57023244	     -8.08758547	      0.00000000	      0.00000000	     69.85611779	      4.59090390	     -8.89202152	     75.48670012	      1.31749146	     21.42520089	      0.00000000	      0.00000000	      1.89403624	    -12.72838161	    -11.97978634	     89.94485723	     -3.87117670	     23.03548930	     53.54769886	     45.00000093	      0.00000000	      0.00000000	     89.96904072	    -14.70470123	     31.38900523	     59.38539139	     84.61687962	      0.00000000	      0.00000000
      5.08000000	    -26.05750874	      3.17495747	      6.73994535	     -0.34039919	      0.82395271	     -0.99638114	     35.37346531	    -14.65891890	     -0.17034868	     90.00242087	      1.57083858	     -8.08605443	      0.00000000	      0.00000000	     69.86096871	      4.60263568	     -8.94865947	     75.55556819	      1.31869343	     21.49146588	      0.00000000	      0.00000000	      1.85834627	    -12.76763983	    -11.98639882	     89.94494353	     -3.84390029	     23.01153659	     53.55745806	     45.00000080	      0.00000000	      0.00000000	     89.96902508	    -14.73722742	     31.40083236	     59.36965628	     84.63624324	      0.00000000	      0.00000000
      5.08500000	    -26.00540433	      3.27482209	      6.69667969	     -0.34024827	      0.82370257	     -0.99632601	     35.32202364	    -14.71247883	     -0.10785714	     90.02485407	      1.57123011	     -8.11888126	      0.00000000	      0.00000000	     69.80844380	      4.61015924	     -9.04385334	     75.61038492	      1.31965017	     21.52106017	      0.00000000	      0.00000000	      1.78080387	    -12.85749620	    -11.92476172	     89.94496517	     -3.84330711	     23.00093124	     53.57299765	     45.00000070	      0.00000000	      0.00000000	     89.96905707	    -14.73332010	     31.37091049	     59.38423747	     84.60665395	      0.00000000	      0.00000000
      5.09000000	    -26.00836981	      3.25961227	      6.73864002	     -0.34020518	      0.82328734	     -0.99637317	     35.29783771	    -14.68262085	     -0.11617565	     90.04908202	      1.57165297	     -8.11028564	      0.00000000	      0.00000000	     69.86751040	      4.64113276	     -9.02599275	     75.71562939	      1.32148703	     21.52183589	      0.00000000	      0.00000000	      1.76585041	    -12.84385404	    -11.96913395	     89.94521057	     -3.86681126	     23.25237895	     53.46349335	     45.00000065	      0.00000000	      0.00000000	     89.96900098	    -14.71927650	     31.71570348	     59.48892047	     80.35465006	      0.00000000	      0.00000000
      5.09500000	    -26.01409348	      3.31738818	      6.77649051	     -0.34019154	      0.82293800	     -0.99645252	     35.29650867	    -14.77935895	     -0.17392923	     90.08997652	      1.57236671	     -8.15960277	      0.00000000	      0.00000000	     69.88626821	      4.72602916	     -9.04308130	     75.74659480	      1.32202748	     21.69697297	      0.00000000	      0.00000000	      1.73591790	    -12.91255022	    -11.96986270	     89.94508982	     -3.89079426	     22.98722766	     53.48836012	     45.00000059	      0.00000000	      0.00000000	     89.96901007	    -14.62959255	     31.86323061	     59.51374339	     76.97331476	      0.00000000	      0.00000000
